# xmcd CD database file
#
# Track frame offsets:
#	150
#	23743
#	50785
#	68517
#	90169
#	119292
#	145450
#	169543
#	184968
#	203006
#
# Disc length: 2971 seconds
#
# Revision: 0
# Processed by: cddbd v1.5.2PL0 Copyright (c) Steve Scherf et al.
# Submitted via: CDex 1.50
#
DISCID=820b990a
DTITLE=Terra Brasil - Questão de Tempo
DYEAR=2004
DGENRE=Jazz
TTITLE0=João Danado
TTITLE1=Valsa Leguera
TTITLE2=Questão de Tempo
TTITLE3=Chino
TTITLE4=Cine-Cuba
TTITLE5=Very Early
TTITLE6=2001
TTITLE7=Se Você me Colcheia
TTITLE8=Choro Nosso
TTITLE9=Bluesamba
EXTD=YEAR: 2004
EXTT0=
EXTT1=
EXTT2=
EXTT3=
EXTT4=
EXTT5=
EXTT6=
EXTT7=
EXTT8=
EXTT9=
PLAYORDER=
